<svg version="1.1" xmlns="http://www.w3.org/2000/svg" xmlns:xlink="http://www.w3.org/1999/xlink" width="61.11851" height="54.21397" viewBox="0,0,61.11851,54.21397"><defs><linearGradient x1="234.89231" y1="174.23349" x2="254.35769" y2="195.39151" gradientUnits="userSpaceOnUse" id="color-1"><stop offset="0" stop-color="#161616"/><stop offset="1" stop-color="#161616" stop-opacity="0"/></linearGradient></defs><g transform="translate(-219.375,-159.6875)"><g data-paper-data="{&quot;isPaintingLayer&quot;:true}" fill-rule="nonzero" stroke-linejoin="miter" stroke-miterlimit="10" stroke-dasharray="" stroke-dashoffset="0" style="mix-blend-mode: normal"><path d="M248.34686,213.90147l-25.96538,-28.15802l25.02165,-21.76992l33.09038,32.15802z" fill="url(#color-1)" stroke="none" stroke-width="0" stroke-linecap="butt"/><path d="M237,194.5625c-9.73402,0 -17.625,-7.80703 -17.625,-17.4375c0,-9.63047 7.89098,-17.4375 17.625,-17.4375c9.73402,0 17.625,7.80703 17.625,17.4375c0,9.63047 -7.89098,17.4375 -17.625,17.4375z" fill="#282828" stroke="none" stroke-width="0" stroke-linecap="butt"/><path d="M242.25,184.5625c-4.41828,0 -8,-2.85418 -8,-6.375c0,-3.52082 3.58172,-6.375 8,-6.375c4.41828,0 8,2.85418 8,6.375c0,3.52082 -3.58172,6.375 -8,6.375z" fill="#141414" stroke="none" stroke-width="0" stroke-linecap="butt"/><path d="M239.5,191.0625c0,0 -0.14849,-4.00043 0.57987,-6.69462c0.45565,-1.68545 1.63486,-2.93038 2.23263,-2.93038c0.65971,0 1.68647,0.73621 2.21803,2.73383c0.72,2.70578 0.84447,6.89117 0.84447,6.89117z" fill="#141414" stroke="none" stroke-width="0" stroke-linecap="butt"/><path d="M239.5,188.8125h-2h-1.125l-0.875,-0.75l-1,-1.375l-0.5,-1.5l-1.625,-1.625l1.25,-0.125l1.25,0.875l1.875,1.875l1.125,0.5h1.75z" fill="#141414" stroke="#141414" stroke-width="0.5" stroke-linecap="round"/><path d="M235.625,175.0625l0.125,-4.875l3.375,2.5z" fill="#141414" stroke="none" stroke-width="0" stroke-linecap="round"/><path d="M245,172.1875l3.375,-2.5l0.125,4.875z" data-paper-data="{&quot;index&quot;:null}" fill="#141414" stroke="none" stroke-width="0" stroke-linecap="round"/><path d="M238,181.0625c-4.41828,0 -8,-2.85418 -8,-6.375c0,-3.52082 3.58172,-6.375 8,-6.375c4.41828,0 8,2.85418 8,6.375c0,3.52082 -3.58172,6.375 -8,6.375z" fill="#ffffff" stroke="none" stroke-width="0" stroke-linecap="butt"/><path d="M235.25,187.5625c0,0 -0.14849,-4.00043 0.57987,-6.69462c0.45565,-1.68545 1.63486,-2.93038 2.23263,-2.93038c0.65971,0 1.68647,0.73621 2.21803,2.73383c0.72,2.70578 0.84447,6.89117 0.84447,6.89117z" fill="#ffffff" stroke="none" stroke-width="0" stroke-linecap="butt"/><path d="M235.25,185.3125h-2h-1.125l-0.875,-0.75l-1,-1.375l-0.5,-1.5l-1.625,-1.625l1.25,-0.125l1.25,0.875l1.875,1.875l1.125,0.5h1.75z" fill="#ffffff" stroke="#ffffff" stroke-width="0.5" stroke-linecap="round"/><path d="M231.375,171.5625l0.125,-4.875l3.375,2.5z" fill="#ffffff" stroke="none" stroke-width="0" stroke-linecap="round"/><path d="M240.75,168.6875l3.375,-2.5l0.125,4.875z" data-paper-data="{&quot;index&quot;:null}" fill="#ffffff" stroke="none" stroke-width="0" stroke-linecap="round"/></g></g></svg>